<?xml version="1.0" encoding="utf-8"?>
<!-- Generator: Adobe Illustrator 24.1.2, SVG Export Plug-In . SVG Version: 6.00 Build 0)  -->
<svg version="1.1" id="レイヤー_1" xmlns="http://www.w3.org/2000/svg" xmlns:xlink="http://www.w3.org/1999/xlink" x="0px"
	 y="0px" viewBox="0 0 32 32" style="enable-background:new 0 0 32 32;" xml:space="preserve">
<style type="text/css">
	.st0{fill:#FFFFFF;}
	.st1{fill:#FF3E40;}
</style>
<circle class="st0" cx="16" cy="14.53" r="13.08"/>
<path class="st1" d="M16,0.08C8.09,0.08,1.67,6.5,1.67,14.41c0,6.64,4.52,12.21,10.65,13.83L16,31.92l3.68-3.68
	c6.13-1.62,10.65-7.2,10.65-13.83C30.33,6.5,23.91,0.08,16,0.08z M16,3.26c2.64,0,4.78,2.13,4.78,4.78s-2.13,4.78-4.78,4.78
	s-4.78-2.13-4.78-4.78S13.36,3.26,16,3.26z M16,26.03c-3.98,0-7.5-2.04-9.55-5.13C6.5,17.74,12.82,16,16,16
	c3.17,0,9.5,1.74,9.55,4.9C23.5,23.99,19.98,26.03,16,26.03z"/>
</svg>
